<svg xmlns="http://www.w3.org/2000/svg" xmlns:xlink="http://www.w3.org/1999/xlink" xmlns:inkscape="http://www.inkscape.org/namespaces/inkscape" version="1.1" width="202" height="153" viewBox="0 0 202 153">
<defs>
<path id="font_1_97" d="M.49899293 .18579102C.49899293 .2858429 .43299867 .36791993 .34899903 .38793946L.22099304 .4189453C.15899658 .43388368 .11999512 .48773194 .11999512 .5458069 .11999512 .61595156 .17399597 .677063 .2519989 .677063 .4189911 .677063 .44099427 .5127411 .44699098 .46777345 .44799806 .461792 .44799806 .45581056 .45899964 .45581056 .47200013 .45581056 .47200013 .46080018 .47200013 .47973634V.68107607C.47200013 .69807437 .47200013 .7050781 .46099855 .7050781 .45399476 .7050781 .45298768 .70407107 .44599916 .69207766L.41099549 .63497927C.3809967 .66404727 .33999635 .7050781 .25099183 .7050781 .13999939 .7050781 .055999757 .61694338 .055999757 .5107422 .055999757 .42790223 .10899353 .35490418 .18699646 .32788087 .19799805 .32388307 .24899292 .3118744 .31900025 .29486085 .34599305 .28785707 .37599183 .280838 .4039917 .24382019 .4249878 .2177887 .43499757 .18478394 .43499757 .1517334 .43499757 .0806427 .3849945 .008529663 .30099488 .008529663 .27198792 .008529663 .19599915 .013534546 .14299011 .06260681 .084991458 .11668396 .08198547 .18078614 .08099365 .21679688 .07998657 .22679138 .07199097 .22679138 .068984989 .22679138 .055999757 .22679138 .055999757 .2197876 .055999757 .20178223V.0015258789C.055999757-.015472412 .055999757-.022460938 .066986087-.022460938 .07398987-.022460938 .07499695-.020462037 .08198547-.009475708 .08198547-.009475708 .084991458-.0054626467 .117996219 .047592164 .14898682 .013534546 .21299744-.022460938 .3019867-.022460938 .4189911-.022460938 .49899293 .07562256 .49899293 .18579102Z"/>
<path id="font_1_105" d="M.33198548 .12385559V.18066406H.30699159V.12585449C.30699159 .052108766 .2769928 .014251709 .23999024 .014251709 .17298889 .014251709 .17298889 .10491943 .17298889 .12187195V.3996582H.31599427V.43066407H.17298889V.6142578H.147995C.14698792 .5324249 .116989139 .42565919 .018997193 .42166139V.3996582H.10398865V.12408447C.10398865 .0012512207 .19699097-.0107421879 .23298645-.0107421879 .3039856-.0107421879 .33198548 .060180665 .33198548 .12408447V.12385559Z"/>
<path id="font_1_28" d="M.48298646 .08912659V.14511109H.45799256V.08912659C.45799256 .03112793 .43299867 .025131226 .42199708 .025131226 .3889923 .025131226 .3849945 .070129398 .3849945 .07511902V.27508546C.3849945 .31707765 .3849945 .3560791 .34899903 .39312745 .30999757 .43223573 .2599945 .4482422 .21199036 .4482422 .12998963 .4482422 .06098938 .40115357 .06098938 .335083 .06098938 .30508424 .08099365 .28808595 .10699463 .28808595 .1349945 .28808595 .15299988 .30807496 .15299988 .33407594 .15299988 .3460846 .147995 .37908937 .101989749 .38008119 .1289978 .41519166 .17799378 .426239 .20999146 .426239 .25898744 .426239 .31599427 .38710023 .31599427 .29808045V.26107789C.2649994 .25808717 .19499207 .25508119 .13198853 .22509766 .056991579 .19110108 .03199768 .13911438 .03199768 .09512329 .03199768 .014251709 .1289978-.0107421879 .19198609-.0107421879 .2579956-.0107421879 .3039856 .029251099 .32299806 .07624817 .32699586 .036132814 .35398866-.005859375 .40098573-.005859375 .42199708-.005859375 .48298646 .008132935 .48298646 .08912659M.31599427 .14013672C.31599427 .04525757 .24398804 .011245728 .19898987 .011245728 .1499939 .011245728 .10899353 .04624939 .10899353 .09625244 .10899353 .15124512 .15098572 .23425293 .31599427 .24024964V.14013672Z"/>
<path id="font_1_96" d="M.3639984 .38137818C.3639984 .41337586 .33299256 .4423828 .2899933 .4423828 .21699524 .4423828 .18099976 .37538148 .16699219 .3323822V.4423828L.027999878 .43066407V.3996582C.09799194 .3996582 .10598755 .39266969 .10598755 .34370423V.07595825C.10598755 .0309906 .09498596 .0309906 .027999878 .0309906V0L.14199829 .0029907227C.18199158 .0029907227 .22898865 .0029907227 .2689972 0V.0309906H.24798584C.17399597 .0309906 .17199707 .04197693 .17199707 .07795715V.23181153C.17199707 .33137513 .21398926 .42037965 .2899933 .42037965 .29699708 .42037965 .29899598 .42037965 .30099488 .41937257 .2979889 .41838075 .27799989 .40637208 .27799989 .3803711 .27799989 .35237123 .29899598 .33737184 .32099916 .33737184 .33898927 .33737184 .3639984 .3493805 .3639984 .38137818Z"/>
<path id="font_1_104" d="M.68499758 .45214845 .66600039 .6767578H.054992677L.035995485 .45214845H.06098938C.07499695 .6128235 .08999634 .64575198 .24099732 .64575198 .25898744 .64575198 .2849884 .64575198 .29499818 .64375308 .31599427 .6397705 .31599427 .6287842 .31599427 .60583499V.07901001C.31599427 .04499817 .31599427 .0309906 .21099854 .0309906H.17098999V0C.21199036 .0029907227 .31399537 .0029907227 .3600006 .0029907227 .4059906 .0029907227 .5089874 .0029907227 .5499878 0V.0309906H.5099945C.40499879 .0309906 .40499879 .04499817 .40499879 .07901001V.60583499C.40499879 .62579348 .40499879 .6397705 .4229889 .64375308 .43399049 .64575198 .46099855 .64575198 .47999574 .64575198 .6309967 .64575198 .6459961 .6128235 .6599884 .45214845H.68499758Z"/>
<path id="font_2_82" d="M.47299195 0V.035995485H.43499757C.33499146 .035995485 .33499146 .048980714 .33499146 .081970218V.6357422C.33499146 .66304019 .33299256 .6640625 .30499269 .6640625 .24099732 .6007385 .1499939 .59973147 .10899353 .59973147V.5644531C.1329956 .5644531 .19898987 .5644531 .2539978 .592453V.08203125C.2539978 .04899597 .2539978 .035995485 .1539917 .035995485H.115997318V0L.2939911 .0039978029 .47299195 0Z"/>
<path id="font_2_102" d="M.49798585 .72499087C.49798585 .74198916 .48399354 .75 .47399903 .75 .45700074 .75 .45199586 .73799136 .44699098 .72499087L.07499695-.20700073C.069992069-.2190094 .069992069-.2250061 .069992069-.2250061 .069992069-.2420044 .083999637-.25 .09399414-.25 .11099243-.25 .115997318-.23800659 .12098694-.2250061L.49299623 .70700076C.49798585 .71899417 .49798585 .72499087 .49798585 .72499087Z"/>
<path id="font_2_107" d="M.5049896 .18203736H.47099305C.46798707 .16001892 .45799256 .100997928 .44499208 .09098816 .43699647 .084991458 .3600006 .084991458 .34599305 .084991458H.1619873C.2669983 .17803955 .3019867 .20603943 .3619995 .25306703 .43598939 .312088 .5049896 .374115 .5049896 .46914674 .5049896 .5900879 .39898683 .6640625 .2709961 .6640625 .14698792 .6640625 .06298828 .57710269 .06298828 .4851532 .06298828 .43414308 .10598755 .42915345 .115997318 .42915345 .13999939 .42915345 .16899109 .44615174 .16899109 .48214723 .16899109 .5001526 .1619873 .53515627 .10998535 .53515627 .14099121 .6060791 .20899964 .62805178 .2559967 .62805178 .35598756 .62805178 .4079895 .5501404 .4079895 .46914674 .4079895 .38212586 .34599305 .3130951 .31399537 .27708436L.07299805 .038986207C.06298828 .02999878 .06298828 .027999878 .06298828 0H.47499085L.5049896 .18203736Z"/>
<path id="font_1_62" d="M.71598818 0V.0309906H.69200137C.61499026 .0309906 .61299136 .041992189 .61299136 .07797241V.6046448C.61299136 .640625 .61499026 .6516113 .69200137 .6516113H.71598818V.6826172C.68099978 .6796112 .6069946 .6796112 .56900027 .6796112 .5309906 .6796112 .45599366 .6796112 .42099 .6826172V.6516113H.44499208C.5219879 .6516113 .5239868 .640625 .5239868 .6046448V.37083436H.22499085V.6046448C.22499085 .640625 .22698975 .6516113 .3039856 .6516113H.32798768V.6826172C.29299928 .6796112 .21899414 .6796112 .18099976 .6796112 .14299011 .6796112 .067993167 .6796112 .032989503 .6826172V.6516113H.056991579C.13398743 .6516113 .13598633 .640625 .13598633 .6046448V.07797241C.13598633 .041992189 .13398743 .0309906 .056991579 .0309906H.032989503V0C.067993167 .0029907227 .14199829 .0029907227 .17999268 .0029907227 .21798706 .0029907227 .29299928 .0029907227 .32798768 0V.0309906H.3039856C.22698975 .0309906 .22499085 .041992189 .22499085 .07797241V.33984376H.5239868V.07797241C.5239868 .041992189 .5219879 .0309906 .44499208 .0309906H.42099V0C.45599366 .0029907227 .5299988 .0029907227 .56799319 .0029907227 .60598757 .0029907227 .68099978 .0029907227 .71598818 0Z"/>
</defs>
<path transform="matrix(1,0,0,-1.00003,18.064003,76.50997)" stroke-width=".3985" stroke-linecap="butt" stroke-miterlimit="10" stroke-linejoin="miter" fill="none" stroke="#000000" d="M15.9684 0C15.9684 8.81921 8.81921 15.9684 0 15.9684-8.81921 15.9684-15.9684 8.81921-15.9684 0-15.9684-8.81921-8.81921-15.9684 0-15.9684 8.81921-15.9684 15.9684-8.81921 15.9684 0ZM0 0"/>
<use data-text="S" xlink:href="#font_1_97" transform="matrix(9.9626,0,0,-9.962899,6.975006,79.91207)"/>
<use data-text="t" xlink:href="#font_1_105" transform="matrix(9.9626,0,0,-9.962899,12.514214,79.91207)"/>
<use data-text="a" xlink:href="#font_1_28" transform="matrix(9.9626,0,0,-9.962899,16.389664,79.91207)"/>
<use data-text="r" xlink:href="#font_1_96" transform="matrix(9.9626,0,0,-9.962899,21.370965,79.91207)"/>
<use data-text="t" xlink:href="#font_1_105" transform="matrix(9.9626,0,0,-9.962899,25.276307,79.91207)"/>
<use data-text="T" xlink:href="#font_1_104" transform="matrix(9.9626,0,0,-9.962899,74.244,119.73427)"/>
<path transform="matrix(1,0,0,-1.00003,18.064003,76.50997)" stroke-width=".3985" stroke-linecap="butt" stroke-miterlimit="10" stroke-linejoin="miter" fill="none" stroke="#000000" d="M13.45123-8.96797 49.67622-33.11856"/>
<path transform="matrix(.832,.5547067,.55469,-.832025,67.74022,109.62953)" d="M3.58653 0C2.52383 .19925 .797 .797-.3985 1.49438V-1.49438C.797-.797 2.52383-.19925 3.58653 0"/>
<use data-text="T" xlink:href="#font_1_104" transform="matrix(9.9626,0,0,-9.962899,134.021,139.66086)"/>
<path transform="matrix(1,0,0,-1.00003,18.064003,76.50997)" stroke-width=".3985" stroke-linecap="butt" stroke-miterlimit="10" stroke-linejoin="miter" fill="none" stroke="#000000" d="M66.89299-42.22153 109.03458-56.27081"/>
<path transform="matrix(.94862,.3162595,.31625,-.9486485,127.098567,132.78247)" d="M3.58653 0C2.52383 .19925 .797 .797-.3985 1.49438V-1.49438C.797-.797 2.52383-.19925 3.58653 0"/>
<use data-text="T" xlink:href="#font_1_104" transform="matrix(9.9626,0,0,-9.962899,193.797,149.62418)"/>
<path transform="matrix(1,0,0,-1.00003,18.064003,76.50997)" stroke-width=".3985" stroke-linecap="butt" stroke-miterlimit="10" stroke-linejoin="miter" fill="none" stroke="#000000" d="M126.6696-60.96182 168.67589-67.96399"/>
<path transform="matrix(.98634,.16440493,.1644,-.9863696,186.7399,144.47599)" d="M3.58653 0C2.52383 .19925 .797 .797-.3985 1.49438V-1.49438C.797-.797 2.52383-.19925 3.58653 0"/>
<use data-text="1" xlink:href="#font_2_82" transform="matrix(6.878538,1.1465272,1.1464927,-6.8787448,160.19562,148.92237)"/>
<use data-text="/" xlink:href="#font_2_102" transform="matrix(6.878538,1.1465272,1.1464927,-6.8787448,164.10951,149.57474)"/>
<use data-text="2" xlink:href="#font_2_107" transform="matrix(6.878538,1.1465272,1.1464927,-6.8787448,168.0234,150.22711)"/>
<use data-text="H" xlink:href="#font_1_62" transform="matrix(9.9626,0,0,-9.962899,193.65799,129.72757)"/>
<path transform="matrix(1,0,0,-1.00003,18.064003,76.50997)" stroke-width=".3985" stroke-linecap="butt" stroke-miterlimit="10" stroke-linejoin="miter" fill="none" stroke="#000000" d="M126.6696-58.59073 168.5364-51.61241"/>
<path transform="matrix(.98634,-.16438493,-.16438,-.9863696,186.6004,128.12393)" d="M3.58653 0C2.52383 .19925 .797 .797-.3985 1.49438V-1.49438C.797-.797 2.52383-.19925 3.58653 0"/>
<use data-text="1" xlink:href="#font_2_82" transform="matrix(6.878538,-1.1463877,-1.1463533,-6.8787448,160.69965,127.10546)"/>
<use data-text="/" xlink:href="#font_2_102" transform="matrix(6.878538,-1.1463877,-1.1463533,-6.8787448,164.61354,126.45317)"/>
<use data-text="2" xlink:href="#font_2_107" transform="matrix(6.878538,-1.1463877,-1.1463533,-6.8787448,168.52744,125.80087)"/>
<use data-text="1" xlink:href="#font_2_82" transform="matrix(6.6154868,2.2055307,2.2054644,-6.615685,99.314929,132.74365)"/>
<use data-text="/" xlink:href="#font_2_102" transform="matrix(6.6154868,2.2055307,2.2054644,-6.615685,103.07914,133.9986)"/>
<use data-text="2" xlink:href="#font_2_107" transform="matrix(6.6154868,2.2055307,2.2054644,-6.615685,106.84335,135.25354)"/>
<use data-text="H" xlink:href="#font_1_62" transform="matrix(9.9626,0,0,-9.962899,133.88101,99.83867)"/>
<path transform="matrix(1,0,0,-1.00003,18.064003,76.50997)" stroke-width=".3985" stroke-linecap="butt" stroke-miterlimit="10" stroke-linejoin="miter" fill="none" stroke="#000000" d="M66.89299-37.4792 108.89503-23.4777"/>
<path transform="matrix(.94864,-.3162295,-.31622,-.9486685,126.95902,99.98837)" d="M3.58653 0C2.52383 .19925 .797 .797-.3985 1.49438V-1.49438C.797-.797 2.52383-.19925 3.58653 0"/>
<use data-text="T" xlink:href="#font_1_104" transform="matrix(9.9626,0,0,-9.962899,193.797,109.77197)"/>
<path transform="matrix(1,0,0,-1.00003,18.064003,76.50997)" stroke-width=".3985" stroke-linecap="butt" stroke-miterlimit="10" stroke-linejoin="miter" fill="none" stroke="#000000" d="M126.80907-21.13399 168.67589-28.11292"/>
<path transform="matrix(.98634,.16440493,.1644,-.9863696,186.7399,104.62372)" d="M3.58653 0C2.52383 .19925 .797 .797-.3985 1.49438V-1.49438C.797-.797 2.52383-.19925 3.58653 0"/>
<use data-text="1" xlink:href="#font_2_82" transform="matrix(6.878538,1.1465272,1.1464927,-6.8787448,160.26561,109.08118)"/>
<use data-text="/" xlink:href="#font_2_102" transform="matrix(6.878538,1.1465272,1.1464927,-6.8787448,164.1795,109.73355)"/>
<use data-text="2" xlink:href="#font_2_107" transform="matrix(6.878538,1.1465272,1.1464927,-6.8787448,168.09339,110.385929)"/>
<use data-text="H" xlink:href="#font_1_62" transform="matrix(9.9626,0,0,-9.962899,193.65799,89.875377)"/>
<path transform="matrix(1,0,0,-1.00003,18.064003,76.50997)" stroke-width=".3985" stroke-linecap="butt" stroke-miterlimit="10" stroke-linejoin="miter" fill="none" stroke="#000000" d="M126.80907-18.71642 168.5364-11.76134"/>
<path transform="matrix(.98634,-.16438493,-.16438,-.9863696,186.6004,88.27167)" d="M3.58653 0C2.52383 .19925 .797 .797-.3985 1.49438V-1.49438C.797-.797 2.52383-.19925 3.58653 0"/>
<use data-text="1" xlink:href="#font_2_82" transform="matrix(6.878538,-1.1463877,-1.1463533,-6.8787448,160.76964,87.24126)"/>
<use data-text="/" xlink:href="#font_2_102" transform="matrix(6.878538,-1.1463877,-1.1463533,-6.8787448,164.68354,86.58897)"/>
<use data-text="2" xlink:href="#font_2_107" transform="matrix(6.878538,-1.1463877,-1.1463533,-6.8787448,168.59741,85.936679)"/>
<use data-text="1" xlink:href="#font_2_82" transform="matrix(6.615626,-2.2053214,-2.205255,-6.615824,100.348278,103.31106)"/>
<use data-text="/" xlink:href="#font_2_102" transform="matrix(6.615626,-2.2053214,-2.205255,-6.615824,104.112567,102.05623)"/>
<use data-text="2" xlink:href="#font_2_107" transform="matrix(6.615626,-2.2053214,-2.205255,-6.615824,107.87686,100.8014)"/>
<use data-text="1" xlink:href="#font_2_82" transform="matrix(5.8022019,3.8684138,3.8682974,-5.8023765,41.3134,102.52756)"/>
<use data-text="/" xlink:href="#font_2_102" transform="matrix(5.8022019,3.8684138,3.8682974,-5.8023765,44.61486,104.72868)"/>
<use data-text="2" xlink:href="#font_2_107" transform="matrix(5.8022019,3.8684138,3.8682974,-5.8023765,47.916315,106.92981)"/>
<use data-text="H" xlink:href="#font_1_62" transform="matrix(9.9626,0,0,-9.962899,74.105,40.059877)"/>
<path transform="matrix(1,0,0,-1.00003,18.064003,76.50997)" stroke-width=".3985" stroke-linecap="butt" stroke-miterlimit="10" stroke-linejoin="miter" fill="none" stroke="#000000" d="M13.45148 8.96797 49.53674 33.0256"/>
<path transform="matrix(.832,-.5547067,-.55469,-.832025,67.60074,43.48338)" d="M3.58653 0C2.52383 .19925 .797 .797-.3985 1.49438V-1.49438C.797-.797 2.52383-.19925 3.58653 0"/>
<use data-text="T" xlink:href="#font_1_104" transform="matrix(9.9626,0,0,-9.962899,134.021,59.956476)"/>
<path transform="matrix(1,0,0,-1.00003,18.064003,76.50997)" stroke-width=".3985" stroke-linecap="butt" stroke-miterlimit="10" stroke-linejoin="miter" fill="none" stroke="#000000" d="M67.03246 37.43414 109.03458 23.43132"/>
<path transform="matrix(.94862,.3162595,.31625,-.9486485,127.098567,53.07795)" d="M3.58653 0C2.52383 .19925 .797 .797-.3985 1.49438V-1.49438C.797-.797 2.52383-.19925 3.58653 0"/>
<use data-text="T" xlink:href="#font_1_104" transform="matrix(9.9626,0,0,-9.962899,193.797,69.91978)"/>
<path transform="matrix(1,0,0,-1.00003,18.064003,76.50997)" stroke-width=".3985" stroke-linecap="butt" stroke-miterlimit="10" stroke-linejoin="miter" fill="none" stroke="#000000" d="M126.6696 18.74031 168.67589 11.73814"/>
<path transform="matrix(.98634,.16440493,.1644,-.9863696,186.7399,64.77146)" d="M3.58653 0C2.52383 .19925 .797 .797-.3985 1.49438V-1.49438C.797-.797 2.52383-.19925 3.58653 0"/>
<use data-text="1" xlink:href="#font_2_82" transform="matrix(6.878538,1.1465272,1.1464927,-6.8787448,160.19562,69.21797)"/>
<use data-text="/" xlink:href="#font_2_102" transform="matrix(6.878538,1.1465272,1.1464927,-6.8787448,164.10951,69.870349)"/>
<use data-text="2" xlink:href="#font_2_107" transform="matrix(6.878538,1.1465272,1.1464927,-6.8787448,168.0234,70.52272)"/>
<use data-text="H" xlink:href="#font_1_62" transform="matrix(9.9626,0,0,-9.962899,193.65799,50.02318)"/>
<path transform="matrix(1,0,0,-1.00003,18.064003,76.50997)" stroke-width=".3985" stroke-linecap="butt" stroke-miterlimit="10" stroke-linejoin="miter" fill="none" stroke="#000000" d="M126.6696 21.1114 168.5364 28.08972"/>
<path transform="matrix(.98634,-.16438493,-.16438,-.9863696,186.6004,48.41941)" d="M3.58653 0C2.52383 .19925 .797 .797-.3985 1.49438V-1.49438C.797-.797 2.52383-.19925 3.58653 0"/>
<use data-text="1" xlink:href="#font_2_82" transform="matrix(6.878538,-1.1463877,-1.1463533,-6.8787448,160.69965,47.401063)"/>
<use data-text="/" xlink:href="#font_2_102" transform="matrix(6.878538,-1.1463877,-1.1463533,-6.8787448,164.61354,46.748769)"/>
<use data-text="2" xlink:href="#font_2_107" transform="matrix(6.878538,-1.1463877,-1.1463533,-6.8787448,168.52744,46.096475)"/>
<use data-text="1" xlink:href="#font_2_82" transform="matrix(6.6154868,2.2055307,2.2054644,-6.615685,99.384929,53.062257)"/>
<use data-text="/" xlink:href="#font_2_102" transform="matrix(6.6154868,2.2055307,2.2054644,-6.615685,103.14914,54.3172)"/>
<use data-text="2" xlink:href="#font_2_107" transform="matrix(6.6154868,2.2055307,2.2054644,-6.615685,106.91335,55.572145)"/>
<use data-text="H" xlink:href="#font_1_62" transform="matrix(9.9626,0,0,-9.962899,133.88101,20.134278)"/>
<path transform="matrix(1,0,0,-1.00003,18.064003,76.50997)" stroke-width=".3985" stroke-linecap="butt" stroke-miterlimit="10" stroke-linejoin="miter" fill="none" stroke="#000000" d="M67.03246 42.26942 108.89503 56.22449"/>
<path transform="matrix(.94864,-.3162195,-.31621,-.9486685,126.95902,20.28379)" d="M3.58653 0C2.52383 .19925 .797 .797-.3985 1.49438V-1.49438C.797-.797 2.52383-.19925 3.58653 0"/>
<use data-text="T" xlink:href="#font_1_104" transform="matrix(9.9626,0,0,-9.962899,193.797,30.067574)"/>
<path transform="matrix(1,0,0,-1.00003,18.064003,76.50997)" stroke-width=".3985" stroke-linecap="butt" stroke-miterlimit="10" stroke-linejoin="miter" fill="none" stroke="#000000" d="M126.80907 58.56815 168.67589 51.58922"/>
<path transform="matrix(.98634,.16440493,.1644,-.9863696,186.7399,24.919194)" d="M3.58653 0C2.52383 .19925 .797 .797-.3985 1.49438V-1.49438C.797-.797 2.52383-.19925 3.58653 0"/>
<use data-text="1" xlink:href="#font_2_82" transform="matrix(6.878538,1.1465272,1.1464927,-6.8787448,160.26561,29.376782)"/>
<use data-text="/" xlink:href="#font_2_102" transform="matrix(6.878538,1.1465272,1.1464927,-6.8787448,164.1795,30.029156)"/>
<use data-text="2" xlink:href="#font_2_107" transform="matrix(6.878538,1.1465272,1.1464927,-6.8787448,168.09339,30.68153)"/>
<use data-text="H" xlink:href="#font_1_62" transform="matrix(9.9626,0,0,-9.962899,193.65799,10.170982)"/>
<path transform="matrix(1,0,0,-1.00003,18.064003,76.50997)" stroke-width=".3985" stroke-linecap="butt" stroke-miterlimit="10" stroke-linejoin="miter" fill="none" stroke="#000000" d="M126.80907 60.98572 168.5364 67.9408"/>
<path transform="matrix(.98634,-.16438493,-.16438,-.9863696,186.6004,8.567123)" d="M3.58653 0C2.52383 .19925 .797 .797-.3985 1.49438V-1.49438C.797-.797 2.52383-.19925 3.58653 0"/>
<use data-text="1" xlink:href="#font_2_82" transform="matrix(6.878538,-1.1463877,-1.1463533,-6.8787448,160.76964,7.536865)"/>
<use data-text="/" xlink:href="#font_2_102" transform="matrix(6.878538,-1.1463877,-1.1463533,-6.8787448,164.68354,6.884571)"/>
<use data-text="2" xlink:href="#font_2_107" transform="matrix(6.878538,-1.1463877,-1.1463533,-6.8787448,168.59741,6.232277)"/>
<use data-text="1" xlink:href="#font_2_82" transform="matrix(6.615626,-2.2052518,-2.2051855,-6.615824,100.41862,23.583655)"/>
<use data-text="/" xlink:href="#font_2_102" transform="matrix(6.615626,-2.2052518,-2.2051855,-6.615824,104.182918,22.328867)"/>
<use data-text="2" xlink:href="#font_2_107" transform="matrix(6.615626,-2.2052518,-2.2051855,-6.615824,107.94721,21.074076)"/>
<use data-text="1" xlink:href="#font_2_82" transform="matrix(5.8022019,-3.8684138,-3.8682974,-5.8023765,43.1781,53.44045)"/>
<use data-text="/" xlink:href="#font_2_102" transform="matrix(5.8022019,-3.8684138,-3.8682974,-5.8023765,46.47956,51.23932)"/>
<use data-text="2" xlink:href="#font_2_107" transform="matrix(5.8022019,-3.8684138,-3.8682974,-5.8023765,49.781015,49.038194)"/>
</svg>
